<svg width="1112" height="862" viewBox="0 0 1112 862" fill="none" xmlns="http://www.w3.org/2000/svg">
<g id="Illustration 1">
<g id="Background">
<g id="Background Object / Tree / 3">
<g id="Group 12">
<path id="Fill 1" fill-rule="evenodd" clip-rule="evenodd" d="M510.676 276.639C510.676 338.983 460.04 389.522 397.578 389.522C335.116 389.522 284.48 338.983 284.48 276.639C284.48 214.294 335.116 163.755 397.578 163.755C460.04 163.755 510.676 214.294 510.676 276.639Z" fill="#ECF6FF"/>
<path id="Stroke 4" d="M397.578 244.014V474.904" stroke="#B6D4FF" stroke-width="8"/>
<path id="Stroke 6" d="M397.578 351.07L422.755 325.941" stroke="#B6D4FF" stroke-width="8"/>
<path id="Stroke 8" d="M398.529 275.641L411.492 262.702" stroke="#B6D4FF" stroke-width="8"/>
<path id="Stroke 10" d="M397.578 313.58L373.449 289.497" stroke="#B6D4FF" stroke-width="8"/>
</g>
</g>
<g id="Background Object / Tree / 4">
<g id="Group 12_2">
<path id="Fill 1_2" fill-rule="evenodd" clip-rule="evenodd" d="M965.933 354.538C965.933 408.289 930.768 432.411 887.562 432.411C844.359 432.411 809.194 408.289 809.194 354.538C809.194 254.413 851.964 160.909 887.562 160.909C923.164 160.909 965.933 254.413 965.933 354.538Z" fill="#ECF6FF"/>
<path id="Stroke 4_2" d="M887.564 267.514V477.025" stroke="#CCE3FF" stroke-width="8" stroke-linecap="square"/>
<path id="Stroke 6_2" d="M888.99 397.135L918.093 368.086" stroke="#CCE3FF" stroke-width="8" stroke-linecap="square"/>
<path id="Stroke 8_2" d="M888.515 303.678L906.6 285.627" stroke="#CCE3FF" stroke-width="8" stroke-linecap="square"/>
<path id="Stroke 10_2" d="M886.613 354.715L859.782 327.934" stroke="#CCE3FF" stroke-width="8" stroke-linecap="square"/>
</g>
</g>
<g id="Background Object / Tree / 5">
<g id="Group 12_3">
<path id="Fill 1_3" fill-rule="evenodd" clip-rule="evenodd" d="M784.985 335.33C784.985 389.719 749.458 420.062 703.187 420.062C656.914 420.062 621.388 389.719 621.388 335.33C621.388 220.815 673.596 88.7969 703.187 88.7969C732.777 88.7969 784.985 220.815 784.985 335.33Z" fill="#CCE3FF"/>
<path id="Stroke 4_3" d="M703.186 254.43V505.469" stroke="#ECF6FF" stroke-width="8" stroke-linecap="square"/>
<path id="Stroke 6_3" d="M704.164 387.417L733.115 358.491" stroke="#ECF6FF" stroke-width="8" stroke-linecap="square"/>
<path id="Stroke 8_3" d="M700.763 332.303L677.073 308.634" stroke="#ECF6FF" stroke-width="8" stroke-linecap="square"/>
<path id="Stroke 10_3" d="M704.612 295.226L722.697 277.156" stroke="#ECF6FF" stroke-width="8" stroke-linecap="square"/>
</g>
</g>
<g id="Background Object / Sofa / 4">
<g id="Group 17">
<path id="Fill 1_4" fill-rule="evenodd" clip-rule="evenodd" d="M676.409 532.754L698.799 637.052H713.611L691.221 532.754H676.409Z" fill="#CCE3FF"/>
<path id="Fill 2" fill-rule="evenodd" clip-rule="evenodd" d="M316.453 532.753H699.835V516.619H316.453V532.753Z" fill="#D7EBFF"/>
<path id="Fill 3" fill-rule="evenodd" clip-rule="evenodd" d="M618.543 591.182H693.291V575.048H618.543V591.182Z" fill="#D7EBFF"/>
<path id="Fill 4" fill-rule="evenodd" clip-rule="evenodd" d="M395.667 426.574L378.864 516.619H399.141L415.943 426.574H395.667Z" fill="#CCE3FF"/>
<path id="Fill 5" fill-rule="evenodd" clip-rule="evenodd" d="M687.912 426.574L671.11 516.619H691.386L708.188 426.574H687.912Z" fill="#CCE3FF"/>
<path id="Fill 6" fill-rule="evenodd" clip-rule="evenodd" d="M609.932 532.754H699.835V516.62H609.932V532.754Z" fill="#B6D4FF"/>
<path id="Fill 7" fill-rule="evenodd" clip-rule="evenodd" d="M728.41 485.271L725.404 501.408H705.125L708.136 485.271H728.41Z" fill="#CCE3FF"/>
<path id="Fill 8" fill-rule="evenodd" clip-rule="evenodd" d="M708.136 485.271L705.125 501.408H363.899L366.911 485.271H708.136Z" fill="#D7EBFF"/>
<path id="Fill 9" fill-rule="evenodd" clip-rule="evenodd" d="M733.885 455.924L730.879 472.056H710.599L713.611 455.924H733.885Z" fill="#CCE3FF"/>
<path id="Fill 10" fill-rule="evenodd" clip-rule="evenodd" d="M713.611 455.924L710.599 472.056H369.373L372.385 455.924H713.611Z" fill="#D7EBFF"/>
<path id="Fill 11" fill-rule="evenodd" clip-rule="evenodd" d="M719.085 426.576L716.08 442.708H736.353L739.359 426.576H719.085Z" fill="#CCE3FF"/>
<path id="Fill 12" fill-rule="evenodd" clip-rule="evenodd" d="M377.865 426.576L374.853 442.708H716.08L719.085 426.576H377.865Z" fill="#D7EBFF"/>
<path id="Fill 13" fill-rule="evenodd" clip-rule="evenodd" d="M618.543 532.754L596.153 637.052H610.965L633.355 532.754H618.543Z" fill="#CCE3FF"/>
<path id="Fill 14" fill-rule="evenodd" clip-rule="evenodd" d="M383.104 532.754L405.495 637.052H420.306L397.916 532.754H383.104Z" fill="#CCE3FF"/>
<path id="Fill 15" fill-rule="evenodd" clip-rule="evenodd" d="M325.238 591.182H399.986V575.048H325.238V591.182Z" fill="#D7EBFF"/>
<path id="Fill 16" fill-rule="evenodd" clip-rule="evenodd" d="M325.238 532.754L302.849 637.052H317.661L340.05 532.754H325.238Z" fill="#CCE3FF"/>
</g>
</g>
</g>
<g id="Person / Woman / 1">
<g id="Girl / Head / 1">
<g id="Group 23">
<path id="Hair" d="M733.539 209.927C732.928 210.749 732.615 211.624 732.655 212.554C731.465 216.509 730.824 220.693 730.817 225.022C730.816 225.577 730.826 226.13 730.846 226.68L730.779 274.587L821.686 274.73L821.755 225.232L821.724 225.232C821.724 225.206 821.724 225.181 821.724 225.155C821.762 200.644 801.442 180.744 776.338 180.707C756.665 180.679 739.892 192.858 733.539 209.927Z" fill="#19141E"/>
<path id="Fill 7_2" fill-rule="evenodd" clip-rule="evenodd" d="M768.981 269.841C768.981 269.841 777.509 270.093 781.144 268.107L769.434 275.46L768.981 269.841Z" fill="#CF3E83"/>
<g id="Face color">
<path id="Face" d="M787.307 239.919C782.431 239.528 752.406 236.406 735.901 217.922L735.82 217.944C735.82 217.944 735.418 258.629 749.973 266.985C754.504 269.584 762.241 270.23 768.98 269.841L770.53 288.993L792.538 279.938C792.538 279.938 790.428 258.807 789.511 250.695C793.936 246.679 801.468 244.819 801.482 237.999C801.488 235.645 800.11 231.556 795.019 231.549C788.18 231.543 789.155 239.727 789.155 239.727C788.539 239.967 787.923 240.023 787.307 239.919Z" fill="#5E93D1"/>
</g>
<path id="Fill 11_2" fill-rule="evenodd" clip-rule="evenodd" d="M750.443 239.714L745.562 251.546L751.225 251.432L750.443 239.714Z" fill="#2437A8"/>
<path id="Fill 13_2" fill-rule="evenodd" clip-rule="evenodd" d="M755.639 240.227C755.761 242.591 757.151 244.432 758.744 244.34C760.337 244.249 761.53 242.258 761.408 239.895C761.287 237.531 759.897 235.689 758.303 235.781C756.711 235.873 755.517 237.863 755.639 240.227Z" fill="#0D0B6D"/>
<path id="Fill 15_2" fill-rule="evenodd" clip-rule="evenodd" d="M740.677 239.849C740.798 242.213 742.189 244.055 743.782 243.963C745.375 243.871 746.569 241.881 746.446 239.517C746.324 237.153 744.935 235.311 743.342 235.404C741.748 235.495 740.555 237.486 740.677 239.849Z" fill="#0D0B6D"/>
<path id="Stroke 17" d="M752.614 257.099C752.614 257.099 756.303 258.29 760 254.18" stroke="#1C295E" stroke-width="3"/>
<path id="Fill 19" opacity="0.395159" fill-rule="evenodd" clip-rule="evenodd" d="M768.995 269.842C768.995 269.842 777.524 270.094 781.158 268.108L769.449 275.46L768.995 269.842Z" fill="black"/>
</g>
</g>
<g id="Girl / Legs / 2">
<g id="Group 16">
<g id="Shoes color">
<path id="Shoes" fill-rule="evenodd" clip-rule="evenodd" d="M890.004 667.235L873.837 651.067L879.453 634.713L913.427 662.73L890.397 715.451C890.397 715.451 888.359 700.998 888.463 686.236C888.535 676.038 890.004 667.235 890.004 667.235ZM694.7 706.468L698.343 692.635L714.926 693.255L701.879 731.941L650.142 699.527C665.755 694.022 694.7 706.468 694.7 706.468Z" fill="#0D0B6D"/>
</g>
<g id="Skin color">
<path id="Skin" fill-rule="evenodd" clip-rule="evenodd" d="M877.913 655.187L879.69 634.697L899.604 651.132L890.004 667.234L877.913 655.187ZM701.108 681.914L718.084 685.079L708.375 712.36L694.7 706.468L701.108 681.914Z" fill="#E576C6"/>
</g>
<g id="Pants color">
<path id="Pants" d="M786.494 588.802C812.848 641.253 858.214 685.718 858.214 685.718L898.831 625.486C898.831 625.486 844.719 577.975 819.182 473.062C823.475 455.826 826.526 441.627 827.597 432.527C831.11 402.728 813.386 382.664 808.63 377.876H806.448L753.009 377.876C751.867 382.125 747.339 405.943 748.906 441.03C744.188 456.707 738.665 475.63 732.266 498.345C695.84 627.648 678.947 684.671 678.947 684.671L748.195 709.371C748.195 709.371 768.073 649.849 786.494 588.802Z" fill="#0D0B6D"/>
</g>
<g id="Overlay">
<path id="Fill 13_3" opacity="0.14688" fill-rule="evenodd" clip-rule="evenodd" d="M678.947 684.671L748.195 709.371C748.195 709.371 768.996 647.084 787.761 584.596C799.479 545.615 811.389 504.332 819.183 473.062C823.475 455.826 826.526 441.627 827.597 432.527C831.11 402.728 813.387 382.664 808.63 377.876H769.421C766.161 386.684 759.592 405.576 748.906 441.031C744.188 456.707 738.665 475.63 732.266 498.345C695.841 627.648 678.947 684.671 678.947 684.671Z" fill="white"/>
</g>
</g>
</g>
<g id="Girl / Body / 2">
<g id="Group 35">
<path id="Fill 1_5" fill-rule="evenodd" clip-rule="evenodd" d="M723.288 431.593C723.288 431.593 748.899 390.663 750.177 380.511C751.531 369.755 750.316 355.865 750.316 355.865L733.022 345.57L728.646 371.171L709.983 429.744" fill="#E576C6"/>
<path id="Fill 8_2" fill-rule="evenodd" clip-rule="evenodd" d="M860.629 429.256C860.629 429.256 861.439 369.93 857.67 360.16C853.901 350.39 847.079 337.291 847.079 337.291L826.847 350.818L837.699 368.39L845.178 428.326" fill="#E576C6"/>
<path id="Fill 10_2" fill-rule="evenodd" clip-rule="evenodd" d="M768.396 292.073L765.369 378.549L779.417 378.338L778.203 292.396L778.691 292.04L778.183 292.073C778.183 292.073 786.136 283.829 789.224 280.729C787.192 280.868 785.187 281.02 783.215 281.125C777.847 281.402 773.27 281.587 769.266 281.89C768.765 282.57 767.651 284.423 767.782 287.391C767.895 289.811 768.073 290.985 768.205 291.552C768.297 291.948 768.37 292.047 768.39 292.067L768.396 292.073Z" fill="#CE3D29"/>
<path id="Stroke 14" d="M802.938 327.796L815.79 347.268" stroke="#FF9929" stroke-width="3"/>
<g id="Skin color_2">
<path id="Skin_2" fill-rule="evenodd" clip-rule="evenodd" d="M775.815 294.559C787.365 293.475 792.513 283.812 794.392 280.118C791.592 280.087 788.86 280.303 786.189 280.515C784.948 280.613 783.719 280.711 782.503 280.782C781.231 280.856 780.01 280.923 778.834 280.988C772.893 281.314 768.138 281.576 764.111 282.3C763.79 283.457 761.395 295.906 775.815 294.559ZM730.397 436.178L716.688 430.397C718.793 427.929 720.421 426.055 720.421 426.055C720.421 426.055 727.875 426.992 729.294 430.329C730.037 432.077 730.362 434.077 730.397 436.178ZM707.461 441.839C707.885 441.008 710.023 438.339 712.444 435.427L729.804 442.409C728.388 449.943 724.943 456.932 724.943 456.932C724.943 456.932 728.506 454.759 729.215 456.66C729.53 457.506 730.246 464.265 716.897 464.72C715.48 464.768 712.07 461.885 712.07 461.885C712.07 461.885 714.556 466.632 710.75 467.564C710.75 467.564 704.616 458.373 704.521 456.328C704.428 454.283 706.396 443.931 707.461 441.839ZM840.493 436.856L842.357 430.896L862.794 432.516C864.199 436.36 865.829 441.031 866.434 443.587C866.907 445.588 866.344 452.577 865.213 456.41C864.573 458.581 863.159 460.594 863.159 460.594C863.159 460.594 861.46 464.584 860.799 464.932C858.929 465.916 858.102 463.996 858.102 463.996C858.102 463.996 856.841 469.757 855.557 469.194C854.765 468.846 853.602 467.769 853.573 466.335C853.39 457.206 851.602 447.67 848.465 446.024C846.45 444.966 845.721 448.554 845.039 451.914C844.658 453.788 844.292 455.591 843.725 456.478C842.191 458.879 836.152 460.592 837.677 456.392C839.766 450.638 839.818 448.221 839.894 444.616C839.898 444.446 839.902 444.273 839.906 444.097C839.994 440.193 840.493 436.856 840.493 436.856Z" fill="#E576C6"/>
</g>
<path id="Stroke 6_4" opacity="0.146601" d="M722.217 438.385C722.217 438.385 720.344 445.461 713.915 447.665C711.668 448.436 712.229 457.538 706.719 456.449" stroke="black" stroke-width="3"/>
<g id="Shirt color">
<path id="Shirt" fill-rule="evenodd" clip-rule="evenodd" d="M789.955 378.876V286.544H760.023V378.876H789.955ZM738.897 439.762L709.304 427.284L707.059 433.26L737.159 445.368L738.897 439.762ZM830.371 423.655L863.754 426.546L863.651 432.584L830.371 429.946V423.655Z" fill="#FCBDA4"/>
</g>
<path id="Coat" fill-rule="evenodd" clip-rule="evenodd" d="M842.357 430.897L830.371 429.947V423.656L863.754 426.547L863.754 426.555L866.414 426.772C866.414 426.772 865.575 374.605 855.565 346.193C846.806 321.349 830.826 294.368 818.348 286.513C817.602 286.045 816.857 285.603 816.118 285.201L818.578 281.857L791.518 274.358C791.518 274.358 792.349 277.61 789.507 280.446C789.452 280.505 789.392 280.564 789.329 280.626C789.294 280.659 789.259 280.694 789.224 280.729C786.137 283.829 778.183 292.073 778.183 292.073L778.691 292.04L778.204 292.396L779.417 378.337L781.105 498.402L850.275 496.318L844.989 452.161C844.626 453.945 844.267 455.63 843.726 456.478C842.192 458.88 836.152 460.592 837.677 456.393C839.766 450.639 839.818 448.221 839.894 444.617L839.906 444.098C839.994 440.194 840.493 436.856 840.493 436.856L842.357 430.897ZM740.433 440.404L734.253 498.402H761.174L765.369 378.549L751.994 378.744L765.369 378.548L768.396 292.073L768.39 292.066C768.37 292.047 768.297 291.948 768.205 291.552C768.073 290.985 767.895 289.811 767.783 287.39C767.651 284.423 768.765 282.569 769.267 281.89C769.412 281.699 769.504 281.6 769.504 281.6L769.016 276.996L747.674 287.568L748.789 288.155L752.733 290.249L748.788 288.156C748.248 288.578 747.714 289.033 747.186 289.521C729.881 305.402 727.354 363.386 727.354 363.386L707.114 426.357L740.433 440.404ZM753.933 313.626L747.47 374.315L753.933 313.626L758.213 291.044L753.287 290.543L758.213 291.044L753.933 313.626Z" fill="#CE3D29"/>
<path id="Fill 21" fill-rule="evenodd" clip-rule="evenodd" d="M768.39 292.066L768.205 291.552C768.297 291.948 768.37 292.047 768.39 292.066Z" fill="#CE3D29"/>
<path id="Stroke 24" opacity="0.20459" d="M818.579 281.855C818.579 281.855 809.669 293.278 799.492 295.307C789.863 297.227 778.183 292.071 778.183 292.071" stroke="black" stroke-width="3"/>
<path id="Stroke 25" opacity="0.20459" d="M747.673 287.571C747.673 287.571 748.456 293.24 752.158 294.661C758.645 297.149 767.098 291.642 767.098 291.642" stroke="black" stroke-width="3"/>
<path id="Stroke 26" opacity="0.201265" d="M740.416 440.523L747.938 332.71" stroke="black" stroke-width="3"/>
<path id="Fill 27" opacity="0.201265" fill-rule="evenodd" clip-rule="evenodd" d="M756.198 337.634C756.266 339.901 757.84 341.694 759.714 341.638C761.587 341.581 763.051 339.697 762.982 337.429C762.914 335.162 761.339 333.369 759.466 333.426C757.593 333.482 756.129 335.366 756.198 337.634Z" fill="black"/>
<path id="Fill 28" opacity="0.201265" fill-rule="evenodd" clip-rule="evenodd" d="M757.888 307.389C757.956 309.656 759.53 311.449 761.403 311.393C763.277 311.336 764.74 309.452 764.672 307.184C764.604 304.917 763.029 303.124 761.156 303.181C759.282 303.237 757.819 305.121 757.888 307.389Z" fill="black"/>
<path id="Fill 29" opacity="0.201265" fill-rule="evenodd" clip-rule="evenodd" d="M754.508 367.879C754.577 370.146 756.151 371.939 758.024 371.883C759.897 371.826 761.361 369.942 761.292 367.674C761.224 365.407 759.65 363.615 757.777 363.671C755.903 363.727 754.44 365.612 754.508 367.879Z" fill="black"/>
<path id="Stroke 32" opacity="0.196568" d="M802.938 323.677L815.79 362.134L821.51 422.675L830.372 423.655" stroke="black" stroke-width="3"/>
<path id="Stroke 33" opacity="0.201265" d="M820.576 412.789L858.713 416.147" stroke="black" stroke-width="3"/>
<path id="Stroke 34" opacity="0.201265" d="M740.417 431.593L716.123 420.612" stroke="black" stroke-width="3"/>
</g>
</g>
</g>
<g id="Person / Man / 2">
<g id="Man / Head / 1">
<g id="Group 30">
<path id="Fill 1_6" fill-rule="evenodd" clip-rule="evenodd" d="M265.619 203.84C265.619 213.295 259.54 220.959 252.04 220.959C244.542 220.959 238.462 213.295 238.462 203.84C238.462 194.385 244.542 186.721 252.04 186.721C259.54 186.721 265.619 194.385 265.619 203.84Z" fill="#19141E"/>
<g id="Face color_2">
<path id="Face_2" d="M233.487 271.658L232.919 251.996C232.919 251.996 256.758 253.898 261.858 251.243C261.858 251.243 268.092 219.058 260.657 201.234L260.507 200.54L210.198 194.643L207.378 223.576C205.683 218.566 191.697 212.886 188.041 220.06C180.118 235.604 208.447 246.071 208.447 246.071L205.57 271.894" fill="#E576C6"/>
</g>
<path id="Fill 5_2" opacity="0.398926" fill-rule="evenodd" clip-rule="evenodd" d="M232.919 251.996L216.843 248.541L232.842 259.373L232.919 251.996Z" fill="black"/>
<path id="Fill 7_3" fill-rule="evenodd" clip-rule="evenodd" d="M245.769 223.208L251.324 236.819L244.667 236.904L245.769 223.208Z" fill="#405FD3"/>
<path id="Fill 9_2" fill-rule="evenodd" clip-rule="evenodd" d="M239.845 223.732C240.176 225.565 238.962 227.32 237.133 227.651C235.304 227.982 233.553 226.765 233.223 224.933C232.892 223.1 234.106 221.345 235.935 221.013C237.764 220.682 239.514 221.899 239.845 223.732Z" fill="#0D0B6D"/>
<path id="Fill 11_3" fill-rule="evenodd" clip-rule="evenodd" d="M258.512 223.732C258.843 225.565 257.629 227.32 255.8 227.651C253.971 227.982 252.22 226.765 251.89 224.933C251.559 223.1 252.773 221.345 254.602 221.013C256.431 220.682 258.181 221.899 258.512 223.732Z" fill="#0D0B6D"/>
<path id="Hair_2" d="M211.113 228.514C206.343 220.332 199.442 217.837 196.344 217.105C195.109 213.526 194.167 209.375 193.505 204.961C191.731 193.146 200.302 182.367 207.225 179.271C214.233 176.139 226.317 171.798 244.004 177.69C255.895 181.655 263.496 172.164 270.493 176.217C282.45 183.146 271.329 213.478 241.01 205.773C219.322 200.261 218.765 201.643 218.579 205.65C217.978 218.601 215.963 226.22 211.113 228.514Z" fill="#2F2F3D"/>
<g id="Group 21">
<path id="Fill 18" fill-rule="evenodd" clip-rule="evenodd" d="M236.521 237.41C236.521 237.41 238.659 241.302 243.279 241.21L236.521 237.41Z" fill="white"/>
<path id="Stroke 20" d="M236.521 237.41C236.521 237.41 238.659 241.302 243.279 241.21" stroke="#252535" stroke-width="4"/>
</g>
<path id="Stroke 22" fill-rule="evenodd" clip-rule="evenodd" d="M244.156 223.895C244.156 228.156 240.709 231.61 236.457 231.61C232.205 231.61 228.758 228.156 228.758 223.895C228.758 219.633 232.205 216.179 236.457 216.179C240.709 216.179 244.156 219.633 244.156 223.895Z" stroke="#252535" stroke-width="4"/>
<path id="Stroke 24_2" fill-rule="evenodd" clip-rule="evenodd" d="M263.542 223.895C263.542 228.156 260.095 231.61 255.843 231.61C251.591 231.61 248.144 228.156 248.144 223.895C248.144 219.633 251.591 216.179 255.843 216.179C260.095 216.179 263.542 219.633 263.542 223.895Z" stroke="#252535" stroke-width="4"/>
<path id="Stroke 26_2" d="M247.517 224.253H244.188" stroke="#252535" stroke-width="4"/>
<path id="Stroke 28" d="M228.758 223.895H209.739" stroke="#252535" stroke-width="4"/>
</g>
</g>
<g id="Man / Legs / 1">
<g id="Group 23_2">
<g id="Shoes_2">
<path id="Shoes_3" fill-rule="evenodd" clip-rule="evenodd" d="M253.285 713.573L253.472 697.447L232.695 686.975L229.68 733.073H301.663C289.415 719.267 253.285 713.573 253.285 713.573ZM161.078 714.201L161.265 696.089L147.72 707.126L136.82 713.199L133.222 733.073H182.49C176.295 716.189 161.078 714.201 161.078 714.201Z" fill="#0D0B6D"/>
</g>
<g id="Leg skin">
<path id="Skin_3" fill-rule="evenodd" clip-rule="evenodd" d="M161.265 696.09L140.488 689.842L136.819 713.2L161.078 714.202L161.265 696.09ZM253.472 697.448L232.695 691.2L231.02 712.572L253.285 713.573L253.472 697.448Z" fill="#E576C6"/>
</g>
<g id="Pants_2">
<path id="Pants_3" d="M256.449 692.16L255.97 707.126H228.564L229.045 692.116C225.975 690.883 223.781 687.919 223.706 684.417L219.295 460.254L171.629 686.566C170.957 689.749 168.597 692.221 165.601 693.133L163.809 707.126H135.074L137.547 691.676C135.154 689.82 133.767 686.768 134.244 683.507L178.128 383.559L217.785 383.559L217.783 383.444H265.815L262.936 683.998C262.896 687.95 260.149 691.256 256.449 692.16Z" fill="#2F2F3D"/>
</g>
<path id="Fill 15_3" opacity="0.197824" fill-rule="evenodd" clip-rule="evenodd" d="M219.051 463.806L227.461 426.497L221.134 539.608L219.051 463.806Z" fill="black"/>
<g id="Pants line">
<path id="Pants line_2" d="M188.389 383.842L192.991 384.593L142.795 690.261L138.179 689.49L188.389 383.842Z" fill="#EFEFEF"/>
</g>
</g>
</g>
<g id="Man / Body / 5">
<g id="Group 18">
<g id="Skin color_3">
<path id="Skin_4" fill-rule="evenodd" clip-rule="evenodd" d="M331.79 280.743L331.46 275.052C331.46 275.052 331.467 271.092 331.982 266.818C332.111 265.745 332.394 264.623 332.697 263.426C333.601 259.849 334.676 255.594 332.324 249.941C329.185 242.401 336.69 247.607 338.352 251.194C338.995 252.58 339.182 254.675 339.367 256.753C339.582 259.157 339.794 261.538 340.707 262.772C342.145 261.992 343.101 260.976 343.101 260.976L359.279 240.113C359.8 239.412 360.763 239.202 361.534 239.615L362.405 240.087C363.322 240.585 363.612 241.752 363.025 242.605C361.902 244.242 359.943 247.005 357.896 249.892C354.18 255.131 350.172 260.782 350.342 260.871L350.771 261.389L369.772 241.47C370.365 240.808 371.361 240.69 372.093 241.195L373.234 241.982C374.065 242.552 374.243 243.693 373.623 244.48C371.597 247.081 366.582 252.715 362.406 257.404C358.793 261.462 355.81 264.813 355.935 264.883L356.502 265.428L374.19 249.895C374.817 249.2 375.885 249.122 376.611 249.705L377.475 250.407C378.233 251.016 378.345 252.125 377.725 252.872L361.02 268.489L361.501 269.243L376.004 259.114C376.67 258.524 377.673 258.524 378.345 259.107L378.748 259.468C379.46 260.097 379.539 261.179 378.919 261.907C377.932 263.068 375.978 264.594 373.649 266.412C370.968 268.506 367.79 270.987 365.017 273.748C363.489 275.269 362.257 276.76 361.009 278.27C358.97 280.738 356.888 283.258 353.403 286.048C351.322 287.719 349.44 288.691 347.648 289.616L347.648 289.617C347.394 289.747 347.143 289.877 346.893 290.008L331.79 280.743ZM201.398 267.686C201.398 267.686 212.575 267.665 220.641 267.638C228.707 267.61 238.85 271.001 238.85 271.001C238.85 271.001 244.129 282.852 225.794 281.779C207.46 280.704 201.398 267.686 201.398 267.686ZM140.266 315.645C140.266 315.645 122.374 342.489 122.779 357.417C123.258 375.018 179.544 418.268 179.544 418.268L194.131 406.391L158.697 357.014L171.583 329.578L140.266 315.645Z" fill="#E576C6"/>
</g>
<g id="Sweater color">
<path id="Sweater" d="M189.893 384.868L198.606 396.554L172.361 419.418C172.361 419.418 124.199 384.137 122.711 356.476C121.764 338.857 137.187 313.707 137.187 313.707C137.187 313.707 156.545 282.786 178.922 272.351C183.515 270.209 194.648 268.423 201.398 267.686C203.467 267.46 202.23 268.266 202.94 269.629C203.682 271.054 205.941 273.165 207.503 274.742C210.755 278.026 217.165 280.513 220.607 281.022C223.231 281.41 228.302 282.011 230.741 281.684C233.18 281.357 235.832 280.256 236.54 279.602C237.249 278.949 238.303 278.13 238.85 276.87C239.397 275.61 239.369 275.971 239.369 274.809C239.369 273.646 239.309 273.818 239.196 273.265C239.082 272.712 239.082 272.379 239.015 272.094C238.718 270.829 238.85 271 238.85 271C252.06 274.988 258.751 276.464 263.564 282.264L300.341 308.059L325.504 275.243L357.972 297.03C357.972 297.03 329.224 350.558 308.39 356.476C291.608 361.243 274.606 346.417 268.628 340.471L275.731 376.505C276.869 382.726 271.418 385.081 266.561 384.861L189.893 384.868Z" fill="#72A065"/>
</g>
<path id="Fill 9_3" opacity="0.201242" fill-rule="evenodd" clip-rule="evenodd" d="M268.517 340.493L264.121 323.132L275.99 346.858L268.517 340.493Z" fill="black"/>
<path id="Stroke 16" opacity="0.200591" d="M186.633 380.684L166.138 351.634L190.895 314.11" stroke="black" stroke-width="5"/>
</g>
</g>
</g>
</g>
</svg>
