<svg width="258" height="60" viewBox="0 0 258 60" fill="none" xmlns="http://www.w3.org/2000/svg">
<path d="M31.488 47L28.608 24.488L20.016 39.944L11.376 24.536L8.496 47H2.112L6.768 13.4H11.808L20.016 28.712L28.176 13.4H33.216L37.872 47H31.488ZM50.367 47.48C47.583 47.48 45.199 46.92 43.215 45.8C41.263 44.648 39.791 43.128 38.799 41.24C37.839 39.32 37.359 37.192 37.359 34.856C37.359 32.616 37.823 30.568 38.751 28.712C39.679 26.856 41.023 25.384 42.783 24.296C44.543 23.176 46.639 22.616 49.071 22.616C51.311 22.616 53.199 23.08 54.735 24.008C56.303 24.936 57.471 26.184 58.239 27.752C59.039 29.32 59.439 31.08 59.439 33.032C59.439 33.992 59.311 35.08 59.055 36.296H43.551C43.871 38.408 44.703 39.992 46.047 41.048C47.391 42.072 49.007 42.584 50.895 42.584C53.487 42.584 55.887 41.928 58.095 40.616L58.383 45.656C57.359 46.2 56.159 46.648 54.783 47C53.439 47.32 51.967 47.48 50.367 47.48ZM53.391 32.264C53.391 31.016 53.039 29.912 52.335 28.952C51.631 27.992 50.543 27.512 49.071 27.512C47.599 27.512 46.415 27.944 45.519 28.808C44.623 29.672 44.015 30.824 43.695 32.264H53.391ZM71.7101 47.48C68.9261 47.48 66.5421 46.92 64.5581 45.8C62.6061 44.648 61.1341 43.128 60.1421 41.24C59.1821 39.32 58.7021 37.192 58.7021 34.856C58.7021 32.616 59.1661 30.568 60.0941 28.712C61.0221 26.856 62.3661 25.384 64.1261 24.296C65.8861 23.176 67.9821 22.616 70.4141 22.616C72.6541 22.616 74.5421 23.08 76.0781 24.008C77.6461 24.936 78.8141 26.184 79.5821 27.752C80.3821 29.32 80.7821 31.08 80.7821 33.032C80.7821 33.992 80.6541 35.08 80.3981 36.296H64.8941C65.2141 38.408 66.0461 39.992 67.3901 41.048C68.7341 42.072 70.3501 42.584 72.2381 42.584C74.8301 42.584 77.2301 41.928 79.4381 40.616L79.7261 45.656C78.7021 46.2 77.5021 46.648 76.1261 47C74.7821 47.32 73.3101 47.48 71.7101 47.48ZM74.7341 32.264C74.7341 31.016 74.3821 29.912 73.6781 28.952C72.9741 27.992 71.8861 27.512 70.4141 27.512C68.9421 27.512 67.7581 27.944 66.8621 28.808C65.9661 29.672 65.3581 30.824 65.0381 32.264H74.7341ZM89.3092 47.48C87.1972 47.48 85.5972 46.872 84.5092 45.656C83.4212 44.408 82.8772 42.92 82.8772 41.192V27.896H79.4692L79.9972 23H82.8772V17.72L88.8292 17.096V23H94.1092V27.896H88.8292V38.744C88.8292 40.024 88.8932 40.92 89.0212 41.432C89.1812 41.912 89.4852 42.232 89.9332 42.392C90.4132 42.52 91.2612 42.584 92.4772 42.584H94.1092L93.5812 47.48H89.3092ZM95.0216 13.4H116.526V19.352H101.31V26.504H113.118V32.456H101.31V41.048H117.006V47H95.0216V13.4ZM129.892 22.616C132.868 22.616 135.124 23.608 136.66 25.592C138.196 27.576 138.964 30.248 138.964 33.608V47H133.012V34.088C133.012 31.848 132.628 30.2 131.86 29.144C131.124 28.056 129.924 27.512 128.26 27.512C126.436 27.512 124.932 28.2 123.748 29.576V47H117.796V23H123.364L123.46 24.68C125.476 23.304 127.62 22.616 129.892 22.616ZM150.425 59.096C147.033 59.096 144.329 58.472 142.313 57.224C140.297 56.008 139.289 54.344 139.289 52.232C139.289 49.928 140.585 48.04 143.177 46.568C141.769 45.704 141.065 44.568 141.065 43.16C141.065 42.424 141.273 41.768 141.689 41.192C142.137 40.616 142.729 40.152 143.465 39.8C142.249 38.936 141.321 37.832 140.681 36.488C140.073 35.144 139.769 33.672 139.769 32.072C139.769 30.312 140.153 28.712 140.921 27.272C141.689 25.8 142.809 24.648 144.281 23.816C145.753 22.952 147.497 22.52 149.513 22.52C151.625 22.52 153.449 23.032 154.985 24.056C155.529 23.768 156.249 23.528 157.145 23.336C158.073 23.112 159.065 23 160.121 23H161.657L161.273 26.744H159.113C158.569 26.744 158.121 26.76 157.769 26.792C158.729 28.264 159.209 30.024 159.209 32.072C159.209 33.832 158.825 35.448 158.057 36.92C157.321 38.36 156.217 39.512 154.745 40.376C153.273 41.208 151.529 41.624 149.513 41.624C148.777 41.624 147.929 41.512 146.969 41.288C146.617 41.448 146.441 41.704 146.441 42.056C146.441 42.472 146.681 42.808 147.161 43.064C147.673 43.288 148.521 43.48 149.705 43.64L153.833 44.168C159.337 44.904 162.089 47.224 162.089 51.128C162.089 53.56 161.049 55.496 158.969 56.936C156.921 58.376 154.073 59.096 150.425 59.096ZM149.513 37.208C150.889 37.208 151.945 36.76 152.681 35.864C153.449 34.936 153.833 33.672 153.833 32.072C153.833 30.472 153.449 29.224 152.681 28.328C151.945 27.4 150.889 26.936 149.513 26.936C148.105 26.936 147.017 27.4 146.249 28.328C145.513 29.224 145.145 30.472 145.145 32.072C145.145 33.672 145.513 34.936 146.249 35.864C147.017 36.76 148.105 37.208 149.513 37.208ZM150.665 54.584C154.761 54.584 156.809 53.576 156.809 51.56C156.809 50.664 156.457 49.992 155.753 49.544C155.049 49.128 153.881 48.792 152.249 48.536L146.969 47.768C145.145 48.504 144.233 49.624 144.233 51.128C144.233 52.28 144.793 53.144 145.913 53.72C147.033 54.296 148.617 54.584 150.665 54.584Z" fill="white"/>
<path d="M191 15L187.475 18.525L201.425 32.5H171V37.5H201.425L187.475 51.475L191 55L211 35L191 15Z" fill="#14279B"/>
<path d="M238 55L241.525 51.475L227.575 37.5H258V32.5H227.575L241.525 18.525L238 15L218 35L238 55Z" fill="#14279B"/>
<rect x="212" y="14" width="5" height="42" fill="#CE3D29"/>
</svg>
